@startuml
left to right direction

[*] --> EmptyViolation
EmptyViolation --> IncompleteViolation : user:takePicture
IncompleteViolation --> CompleteViolation : user:fillData

CompleteViolation --> ConfirmedViolation
CompleteViolation --> DiscardedViolation

ConfirmedViolation --> [*]
DiscardedViolation --> [*]



@enduml